# This file uses centimeters as units for non-parametric coordinates.

mtllib donut6.mtl
g default
v 0.250000 0.000000 -0.433013
v -0.250000 0.000000 -0.433013
v -0.500000 0.000000 -0.000000
v -0.250000 0.000000 0.433013
v 0.250000 0.000000 0.433013
v 0.500000 0.000000 0.000000
v 0.375000 0.433013 -0.649519
v -0.375000 0.433013 -0.649519
v -0.750000 0.433013 -0.000000
v -0.375000 0.433013 0.649519
v 0.375000 0.433013 0.649519
v 0.750000 0.433013 0.000000
v 0.625000 0.433013 -1.082532
v -0.625000 0.433013 -1.082532
v -1.250000 0.433013 -0.000000
v -0.625000 0.433013 1.082532
v 0.625000 0.433013 1.082532
v 1.250000 0.433013 0.000000
v 0.750000 -0.000000 -1.299038
v -0.750000 -0.000000 -1.299038
v -1.500000 -0.000000 -0.000000
v -0.750000 -0.000000 1.299038
v 0.750000 -0.000000 1.299038
v 1.500000 -0.000000 0.000000
v 0.625000 -0.433013 -1.082532
v -0.625000 -0.433013 -1.082532
v -1.250000 -0.433013 -0.000000
v -0.625000 -0.433013 1.082532
v 0.625000 -0.433013 1.082532
v 1.250000 -0.433013 0.000000
v 0.375000 -0.433013 -0.649519
v -0.375000 -0.433013 -0.649519
v -0.750000 -0.433013 -0.000000
v -0.375000 -0.433013 0.649519
v 0.375000 -0.433013 0.649519
v 0.750000 -0.433013 0.000000
vt 0.000000 1.000000
vt 0.166667 1.000000
vt 0.333333 1.000000
vt 0.500000 1.000000
vt 0.666667 1.000000
vt 0.833333 1.000000
vt 1.000000 1.000000
vt 0.000000 0.833333
vt 0.166667 0.833333
vt 0.333333 0.833333
vt 0.500000 0.833333
vt 0.666667 0.833333
vt 0.833333 0.833333
vt 1.000000 0.833333
vt 0.000000 0.666667
vt 0.166667 0.666667
vt 0.333333 0.666667
vt 0.500000 0.666667
vt 0.666667 0.666667
vt 0.833333 0.666667
vt 1.000000 0.666667
vt 0.000000 0.500000
vt 0.166667 0.500000
vt 0.333333 0.500000
vt 0.500000 0.500000
vt 0.666667 0.500000
vt 0.833333 0.500000
vt 1.000000 0.500000
vt 0.000000 0.333333
vt 0.166667 0.333333
vt 0.333333 0.333333
vt 0.500000 0.333333
vt 0.666667 0.333333
vt 0.833333 0.333333
vt 1.000000 0.333333
vt 0.000000 0.166667
vt 0.166667 0.166667
vt 0.333333 0.166667
vt 0.500000 0.166667
vt 0.666667 0.166667
vt 0.833333 0.166667
vt 1.000000 0.166667
vt 0.000000 -0.000000
vt 0.166667 -0.000000
vt 0.333333 -0.000000
vt 0.500000 -0.000000
vt 0.666667 -0.000000
vt 0.833333 -0.000000
vt 1.000000 -0.000000
vn -0.000000 0.447214 0.894427
vn -0.000000 0.447214 0.894427
vn -0.000000 0.447214 0.894427
vn -0.000000 0.447214 0.894427
vn 0.774597 0.447214 0.447214
vn 0.774597 0.447214 0.447214
vn 0.774597 0.447214 0.447214
vn 0.774597 0.447214 0.447214
vn 0.774597 0.447214 -0.447214
vn 0.774597 0.447214 -0.447214
vn 0.774597 0.447214 -0.447214
vn 0.774597 0.447214 -0.447214
vn 0.000000 0.447214 -0.894427
vn 0.000000 0.447214 -0.894427
vn 0.000000 0.447214 -0.894427
vn 0.000000 0.447214 -0.894427
vn -0.774597 0.447214 -0.447214
vn -0.774597 0.447214 -0.447214
vn -0.774597 0.447214 -0.447214
vn -0.774597 0.447214 -0.447214
vn -0.774597 0.447214 0.447213
vn -0.774597 0.447214 0.447213
vn -0.774597 0.447214 0.447213
vn -0.774597 0.447214 0.447213
vn 0.000000 1.000000 -0.000000
vn 0.000000 1.000000 -0.000000
vn 0.000000 1.000000 -0.000000
vn 0.000000 1.000000 -0.000000
vn -0.000000 1.000000 -0.000000
vn -0.000000 1.000000 -0.000000
vn -0.000000 1.000000 -0.000000
vn -0.000000 1.000000 -0.000000
vn -0.000000 1.000000 0.000000
vn -0.000000 1.000000 0.000000
vn -0.000000 1.000000 0.000000
vn -0.000000 1.000000 0.000000
vn -0.000000 1.000000 0.000000
vn -0.000000 1.000000 0.000000
vn -0.000000 1.000000 0.000000
vn -0.000000 1.000000 0.000000
vn 0.000000 1.000000 0.000000
vn 0.000000 1.000000 0.000000
vn 0.000000 1.000000 0.000000
vn 0.000000 1.000000 0.000000
vn 0.000000 1.000000 -0.000000
vn 0.000000 1.000000 -0.000000
vn 0.000000 1.000000 -0.000000
vn 0.000000 1.000000 -0.000000
vn 0.000000 0.447214 -0.894427
vn 0.000000 0.447214 -0.894427
vn 0.000000 0.447214 -0.894427
vn 0.000000 0.447214 -0.894427
vn -0.774597 0.447214 -0.447214
vn -0.774597 0.447214 -0.447214
vn -0.774597 0.447214 -0.447214
vn -0.774597 0.447214 -0.447214
vn -0.774597 0.447214 0.447213
vn -0.774597 0.447214 0.447213
vn -0.774597 0.447214 0.447213
vn -0.774597 0.447214 0.447213
vn -0.000000 0.447214 0.894427
vn -0.000000 0.447214 0.894427
vn -0.000000 0.447214 0.894427
vn -0.000000 0.447214 0.894427
vn 0.774597 0.447214 0.447214
vn 0.774597 0.447214 0.447214
vn 0.774597 0.447214 0.447214
vn 0.774597 0.447214 0.447214
vn 0.774597 0.447214 -0.447213
vn 0.774597 0.447214 -0.447213
vn 0.774597 0.447214 -0.447213
vn 0.774597 0.447214 -0.447213
vn 0.000000 -0.447214 -0.894427
vn 0.000000 -0.447214 -0.894427
vn 0.000000 -0.447214 -0.894427
vn 0.000000 -0.447214 -0.894427
vn -0.774597 -0.447214 -0.447214
vn -0.774597 -0.447214 -0.447214
vn -0.774597 -0.447214 -0.447214
vn -0.774597 -0.447214 -0.447214
vn -0.774597 -0.447214 0.447214
vn -0.774597 -0.447214 0.447214
vn -0.774597 -0.447214 0.447214
vn -0.774597 -0.447214 0.447214
vn -0.000000 -0.447214 0.894427
vn -0.000000 -0.447214 0.894427
vn -0.000000 -0.447214 0.894427
vn -0.000000 -0.447214 0.894427
vn 0.774597 -0.447214 0.447214
vn 0.774597 -0.447214 0.447214
vn 0.774597 -0.447214 0.447214
vn 0.774597 -0.447214 0.447214
vn 0.774597 -0.447214 -0.447213
vn 0.774597 -0.447214 -0.447213
vn 0.774597 -0.447214 -0.447213
vn 0.774597 -0.447214 -0.447213
vn -0.000000 -1.000000 0.000000
vn -0.000000 -1.000000 0.000000
vn -0.000000 -1.000000 0.000000
vn -0.000000 -1.000000 0.000000
vn 0.000000 -1.000000 0.000000
vn 0.000000 -1.000000 0.000000
vn 0.000000 -1.000000 0.000000
vn 0.000000 -1.000000 0.000000
vn 0.000000 -1.000000 -0.000000
vn 0.000000 -1.000000 -0.000000
vn 0.000000 -1.000000 -0.000000
vn 0.000000 -1.000000 -0.000000
vn 0.000000 -1.000000 -0.000000
vn 0.000000 -1.000000 -0.000000
vn 0.000000 -1.000000 -0.000000
vn 0.000000 -1.000000 -0.000000
vn -0.000000 -1.000000 -0.000000
vn -0.000000 -1.000000 -0.000000
vn -0.000000 -1.000000 -0.000000
vn -0.000000 -1.000000 -0.000000
vn -0.000000 -1.000000 0.000000
vn -0.000000 -1.000000 0.000000
vn -0.000000 -1.000000 0.000000
vn -0.000000 -1.000000 0.000000
vn -0.000000 -0.447214 0.894427
vn -0.000000 -0.447214 0.894427
vn -0.000000 -0.447214 0.894427
vn -0.000000 -0.447214 0.894427
vn 0.774597 -0.447213 0.447214
vn 0.774597 -0.447213 0.447214
vn 0.774597 -0.447213 0.447214
vn 0.774597 -0.447213 0.447214
vn 0.774597 -0.447213 -0.447214
vn 0.774597 -0.447213 -0.447214
vn 0.774597 -0.447213 -0.447214
vn 0.774597 -0.447213 -0.447214
vn 0.000000 -0.447213 -0.894427
vn 0.000000 -0.447213 -0.894427
vn 0.000000 -0.447213 -0.894427
vn 0.000000 -0.447213 -0.894427
vn -0.774597 -0.447213 -0.447214
vn -0.774597 -0.447213 -0.447214
vn -0.774597 -0.447213 -0.447214
vn -0.774597 -0.447213 -0.447214
vn -0.774597 -0.447213 0.447213
vn -0.774597 -0.447213 0.447213
vn -0.774597 -0.447213 0.447213
vn -0.774597 -0.447213 0.447213
s off
g pTorus1
usemtl initialShadingGroup
f 2/2/1 1/1/2 7/8/3 8/9/4
f 3/3/5 2/2/6 8/9/7 9/10/8
f 4/4/9 3/3/10 9/10/11 10/11/12
f 5/5/13 4/4/14 10/11/15 11/12/16
f 6/6/17 5/5/18 11/12/19 12/13/20
f 1/7/21 6/6/22 12/13/23 7/14/24
f 8/9/25 7/8/26 13/15/27 14/16/28
f 9/10/29 8/9/30 14/16/31 15/17/32
f 10/11/33 9/10/34 15/17/35 16/18/36
f 11/12/37 10/11/38 16/18/39 17/19/40
f 12/13/41 11/12/42 17/19/43 18/20/44
f 7/14/45 12/13/46 18/20/47 13/21/48
f 14/16/49 13/15/50 19/22/51 20/23/52
f 15/17/53 14/16/54 20/23/55 21/24/56
f 16/18/57 15/17/58 21/24/59 22/25/60
f 17/19/61 16/18/62 22/25/63 23/26/64
f 18/20/65 17/19/66 23/26/67 24/27/68
f 13/21/69 18/20/70 24/27/71 19/28/72
f 20/23/73 19/22/74 25/29/75 26/30/76
f 21/24/77 20/23/78 26/30/79 27/31/80
f 22/25/81 21/24/82 27/31/83 28/32/84
f 23/26/85 22/25/86 28/32/87 29/33/88
f 24/27/89 23/26/90 29/33/91 30/34/92
f 19/28/93 24/27/94 30/34/95 25/35/96
f 26/30/97 25/29/98 31/36/99 32/37/100
f 27/31/101 26/30/102 32/37/103 33/38/104
f 28/32/105 27/31/106 33/38/107 34/39/108
f 29/33/109 28/32/110 34/39/111 35/40/112
f 30/34/113 29/33/114 35/40/115 36/41/116
f 25/35/117 30/34/118 36/41/119 31/42/120
f 32/37/121 31/36/122 1/43/123 2/44/124
f 33/38/125 32/37/126 2/44/127 3/45/128
f 34/39/129 33/38/130 3/45/131 4/46/132
f 35/40/133 34/39/134 4/46/135 5/47/136
f 36/41/137 35/40/138 5/47/139 6/48/140
f 31/42/141 36/41/142 6/48/143 1/49/144
